<?xml version="1.0" encoding="iso-8859-1"?>
<!-- Generator: Adobe Illustrator 15.1.0, SVG Export Plug-In . SVG Version: 6.00 Build 0)  -->
<!DOCTYPE svg PUBLIC "-//W3C//DTD SVG 1.1//EN" "http://www.w3.org/Graphics/SVG/1.1/DTD/svg11.dtd">
<svg version="1.1" id="Layer_1" xmlns="http://www.w3.org/2000/svg" xmlns:xlink="http://www.w3.org/1999/xlink" x="0px" y="0px"
	 width="32px" height="32px" viewBox="0 0 32 32" enable-background="new 0 0 32 32" xml:space="preserve">
<path fill="#FFFFFF" d="M24.92,8.81c-0.66-0.5-1.6-0.38-2.1,0.27l-8.96,11.65l-3.79-3.79c-0.59-0.59-1.54-0.59-2.12,0
	s-0.59,1.54,0,2.12l5,5c0.01,0.01,0.02,0.01,0.03,0.02c0.04,0.04,0.07,0.07,0.11,0.1c0.07,0.06,0.16,0.09,0.24,0.13
	c0.05,0.03,0.1,0.06,0.16,0.08c0.17,0.06,0.34,0.1,0.52,0.1h0c0,0,0,0,0,0c0,0,0,0,0,0c0.17,0,0.35-0.04,0.51-0.1
	c0.03-0.01,0.05-0.02,0.08-0.03c0.16-0.07,0.3-0.17,0.43-0.29c0.01-0.01,0.03-0.01,0.04-0.03c0.01-0.01,0.02-0.03,0.03-0.04
	c0.03-0.03,0.07-0.06,0.1-0.1l10-13C25.69,10.26,25.57,9.32,24.92,8.81z"/>
</svg>
