<?xml version="1.0" encoding="UTF-8" standalone="no"?><!DOCTYPE svg PUBLIC "-//W3C//DTD SVG 1.1//EN" "http://www.w3.org/Graphics/SVG/1.1/DTD/svg11.dtd"><svg width="100%" height="100%" viewBox="0 0 5 5" version="1.1" xmlns="http://www.w3.org/2000/svg" xmlns:xlink="http://www.w3.org/1999/xlink" xml:space="preserve" style="fill-rule:evenodd;clip-rule:evenodd;stroke-linejoin:round;stroke-miterlimit:1.41421;"><path id="pack" d="M3.84,4.32l-2.88,0l0,-2.16l1.2,0l0,0.24l0.48,0l0,-0.24l1.2,0l0,2.16Zm-2.16,-3.589l0,-0.251l0.72,0.48l-0.72,0.48l0,-0.251c-0.027,0 -0.028,0 -0.056,0.001c-0.027,0.001 -0.027,0.001 -0.055,0.003c-0.108,0.011 -0.215,0.034 -0.315,0.076c-0.142,0.059 -0.266,0.154 -0.358,0.277c-0.06,0.08 -0.105,0.17 -0.135,0.265c-0.025,0.077 -0.04,0.157 -0.047,0.238c-0.004,0.038 -0.005,0.076 -0.005,0.113l-0.458,-0.004c0.001,-0.056 0.003,-0.112 0.009,-0.168c0.012,-0.125 0.039,-0.25 0.082,-0.369c0.084,-0.232 0.23,-0.439 0.424,-0.592c0.118,-0.093 0.252,-0.164 0.393,-0.213c0.12,-0.042 0.244,-0.067 0.37,-0.078c0.05,-0.005 0.099,-0.006 0.149,-0.007l0.002,0Zm1.452,0l-0.001,-0.251l-0.72,0.48l0.72,0.48l0,-0.251c0.027,0 0.028,0 0.056,0.001c0.028,0.001 0.028,0.001 0.055,0.003c0.108,0.011 0.215,0.034 0.316,0.076c0.141,0.059 0.266,0.154 0.357,0.277c0.06,0.08 0.105,0.17 0.136,0.265c0.024,0.077 0.04,0.157 0.047,0.238c0.003,0.038 0.004,0.076 0.005,0.113l0.457,-0.004c-0.001,-0.056 -0.003,-0.112 -0.008,-0.168c-0.013,-0.125 -0.04,-0.25 -0.083,-0.369c-0.084,-0.232 -0.23,-0.439 -0.424,-0.592c-0.118,-0.093 -0.251,-0.164 -0.393,-0.213c-0.119,-0.042 -0.244,-0.067 -0.37,-0.078c-0.049,-0.005 -0.099,-0.006 -0.148,-0.007l-0.002,0Z" style="fill:#973333;"/></svg>