<?xml version="1.0" encoding="UTF-8" standalone="no"?><!DOCTYPE svg PUBLIC "-//W3C//DTD SVG 1.1//EN" "http://www.w3.org/Graphics/SVG/1.1/DTD/svg11.dtd"><svg width="100%" height="100%" viewBox="0 0 5 5" version="1.1" xmlns="http://www.w3.org/2000/svg" xmlns:xlink="http://www.w3.org/1999/xlink" xml:space="preserve" style="fill-rule:evenodd;clip-rule:evenodd;stroke-linejoin:round;stroke-miterlimit:1.41421;"><path d="M2.761,0.027c-0.239,-0.036 -0.483,-0.036 -0.722,0c-0.104,0.217 -0.167,0.446 -0.187,0.686c-0.089,0.029 -0.175,0.064 -0.257,0.107c-0.184,-0.156 -0.39,-0.273 -0.618,-0.353c-0.194,0.144 -0.366,0.316 -0.51,0.51c0.08,0.228 0.197,0.434 0.353,0.618c-0.043,0.082 -0.078,0.168 -0.107,0.257c-0.24,0.02 -0.469,0.083 -0.686,0.187c-0.036,0.239 -0.036,0.483 0,0.722c0.217,0.104 0.446,0.167 0.686,0.187c0.029,0.089 0.064,0.175 0.107,0.257c-0.156,0.184 -0.273,0.39 -0.353,0.618c0.144,0.194 0.316,0.366 0.51,0.51c0.228,-0.08 0.434,-0.197 0.618,-0.353c0.082,0.043 0.168,0.078 0.257,0.107c0.02,0.24 0.083,0.469 0.187,0.686c0.239,0.036 0.483,0.036 0.722,0c0.104,-0.217 0.167,-0.446 0.187,-0.686c0.089,-0.029 0.175,-0.064 0.257,-0.107c0.184,0.156 0.39,0.273 0.618,0.353c0.194,-0.144 0.366,-0.316 0.51,-0.51c-0.08,-0.228 -0.197,-0.434 -0.353,-0.618c0.043,-0.082 0.078,-0.168 0.107,-0.257c0.24,-0.02 0.469,-0.083 0.686,-0.187c0.036,-0.239 0.036,-0.483 0,-0.722c-0.217,-0.104 -0.446,-0.167 -0.686,-0.187c-0.029,-0.089 -0.064,-0.175 -0.107,-0.257c0.156,-0.184 0.273,-0.39 0.353,-0.618c-0.144,-0.194 -0.316,-0.366 -0.51,-0.51c-0.228,0.08 -0.434,0.197 -0.618,0.353c-0.082,-0.043 -0.168,-0.078 -0.257,-0.107c-0.02,-0.24 -0.083,-0.469 -0.187,-0.686Zm-0.361,1.437c0.517,0 0.936,0.419 0.936,0.936c0,0.517 -0.419,0.936 -0.936,0.936c-0.517,0 -0.936,-0.419 -0.936,-0.936c0,-0.517 0.419,-0.936 0.936,-0.936Z" style="fill:#cd4d4d;"/></svg>