<?xml version="1.0" encoding="UTF-8" standalone="no"?><!DOCTYPE svg PUBLIC "-//W3C//DTD SVG 1.1//EN" "http://www.w3.org/Graphics/SVG/1.1/DTD/svg11.dtd"><svg width="100%" height="100%" viewBox="0 0 16 16" version="1.1" xmlns="http://www.w3.org/2000/svg" xmlns:xlink="http://www.w3.org/1999/xlink" xml:space="preserve" style="fill-rule:evenodd;clip-rule:evenodd;stroke-linejoin:round;stroke-miterlimit:1.41421;"><path d="M13.275,1.985c-0.79,-0.692 -1.709,-1.223 -2.703,-1.56l-1.395,1.657c-0.777,-0.155 -1.577,-0.155 -2.354,0l-1.395,-1.657c-0.994,0.337 -1.913,0.868 -2.703,1.56l0.738,2.036c-0.522,0.596 -0.922,1.289 -1.177,2.039l-2.132,0.379c-0.205,1.031 -0.205,2.091 0,3.122l2.132,0.379c0.255,0.75 0.655,1.443 1.177,2.039l-0.738,2.036c0.79,0.692 1.709,1.223 2.703,1.56l1.395,-1.657c0.777,0.155 1.577,0.155 2.354,0l1.395,1.657c0.994,-0.337 1.913,-0.868 2.703,-1.56l-0.738,-2.036c0.522,-0.596 0.922,-1.289 1.177,-2.039l2.132,-0.379c0.205,-1.031 0.205,-2.091 0,-3.122l-2.132,-0.379c-0.255,-0.75 -0.655,-1.443 -1.177,-2.039l0.738,-2.036Zm-3.431,2.822c1.762,1.017 2.367,3.274 1.349,5.037c-1.017,1.762 -3.274,2.367 -5.037,1.349c-1.762,-1.017 -2.367,-3.274 -1.349,-5.037c1.017,-1.762 3.274,-2.367 5.037,-1.349Z" style="fill:#e87f4d;"/></svg>