<?xml version="1.0" encoding="UTF-8" standalone="no"?><!DOCTYPE svg PUBLIC "-//W3C//DTD SVG 1.1//EN" "http://www.w3.org/Graphics/SVG/1.1/DTD/svg11.dtd"><svg width="100%" height="100%" viewBox="0 0 16 16" version="1.1" xmlns="http://www.w3.org/2000/svg" xmlns:xlink="http://www.w3.org/1999/xlink" xml:space="preserve" style="fill-rule:evenodd;clip-rule:evenodd;stroke-linejoin:round;stroke-miterlimit:1.41421;"><path d="M10.5,16l-5,0c-1.38,0 -2.5,-1.12 -2.5,-2.5l0,-8.5l10,0l0,8.5c0,1.38 -1.12,2.5 -2.5,2.5Zm-3.5,-3l0,-6l-2,0l0,6l2,0Zm4,0l0,-6l-2,0l0,6l2,0Zm3.25,-9l-12.5,0c-0.414,0 -0.75,-0.336 -0.75,-0.75l0,-1.5c0,-0.414 0.336,-0.75 0.75,-0.75l5.25,0l0,-0.5c0,-0.276 0.224,-0.5 0.5,-0.5l1,0c0.276,0 0.5,0.224 0.5,0.5l0,0.5l5.25,0c0.414,0 0.75,0.336 0.75,0.75l0,1.5c0,0.414 -0.336,0.75 -0.75,0.75Z" style="fill:#e87f4d;"/></svg>