<?xml version="1.0" encoding="UTF-8" standalone="no"?><!DOCTYPE svg PUBLIC "-//W3C//DTD SVG 1.1//EN" "http://www.w3.org/Graphics/SVG/1.1/DTD/svg11.dtd"><svg width="100%" height="100%" viewBox="0 0 5 5" version="1.1" xmlns="http://www.w3.org/2000/svg" xmlns:xlink="http://www.w3.org/1999/xlink" xml:space="preserve" style="fill-rule:evenodd;clip-rule:evenodd;stroke-linejoin:round;stroke-miterlimit:1.41421;"><path d="M3.12,4.8l-1.44,0c-0.397,0 -0.72,-0.323 -0.72,-0.72l0,-2.4l2.88,0l0,2.4c0,0.397 -0.323,0.72 -0.72,0.72Zm-0.96,-0.72l0,-1.92l-0.48,0l0,1.92l0.48,0Zm0.96,0l0,-1.92l-0.48,0l0,1.92l0.48,0Zm-0.48,-3.84c0.132,0 0.24,0.108 0.24,0.24l0,0.24l1.26,0c0.099,0 0.18,0.081 0.18,0.18l0,0.36c0,0.099 -0.081,0.18 -0.18,0.18l-3.48,0c-0.099,0 -0.18,-0.081 -0.18,-0.18l0,-0.36c0,-0.099 0.081,-0.18 0.18,-0.18l1.26,0l0,-0.24c0,-0.132 0.108,-0.24 0.24,-0.24l0.48,0Z" style="fill:#cd4d4d;"/></svg>