<?xml version="1.0" encoding="UTF-8" standalone="no"?><!DOCTYPE svg PUBLIC "-//W3C//DTD SVG 1.1//EN" "http://www.w3.org/Graphics/SVG/1.1/DTD/svg11.dtd"><svg width="100%" height="100%" viewBox="0 0 5 5" version="1.1" xmlns="http://www.w3.org/2000/svg" xmlns:xlink="http://www.w3.org/1999/xlink" xml:space="preserve" style="fill-rule:evenodd;clip-rule:evenodd;stroke-linejoin:round;stroke-miterlimit:1.41421;"><path id="unpack" d="M3.614,2.4l0.542,-0.94l0.208,0.12l-0.524,0.908l0,1.832l-2.88,0l0,-1.832l-0.524,-0.908l0.208,-0.12l0.542,0.94l2.428,0Zm-0.962,-0.48l-0.493,0c-0.007,-0.037 -0.017,-0.073 -0.028,-0.109c-0.031,-0.095 -0.076,-0.185 -0.136,-0.265c-0.091,-0.123 -0.216,-0.218 -0.357,-0.277c-0.101,-0.042 -0.208,-0.065 -0.316,-0.076c-0.027,-0.002 -0.027,-0.002 -0.055,-0.003c-0.028,-0.001 -0.029,-0.001 -0.056,-0.001l0,0.251l-0.72,-0.48l0.72,-0.48l0.001,0.251l0.002,0c0.049,0.001 0.099,0.002 0.148,0.007c0.126,0.011 0.251,0.036 0.37,0.078c0.142,0.049 0.275,0.12 0.393,0.213c0.11,0.086 0.204,0.19 0.281,0.306c0.076,-0.116 0.17,-0.22 0.28,-0.306c0.118,-0.093 0.252,-0.164 0.393,-0.213c0.12,-0.042 0.244,-0.067 0.37,-0.078c0.05,-0.005 0.099,-0.006 0.149,-0.007l0.002,0l0,-0.251l0.72,0.48l-0.72,0.48l0,-0.251c-0.027,0 -0.028,0 -0.056,0.001c-0.027,0.001 -0.027,0.001 -0.055,0.003c-0.108,0.011 -0.215,0.034 -0.315,0.076c-0.142,0.059 -0.266,0.154 -0.358,0.277c-0.06,0.08 -0.105,0.17 -0.135,0.265c-0.012,0.036 -0.021,0.072 -0.029,0.109Z" style="fill:#cd4d4d;"/></svg>